<svg width="500" height="500" viewBox="0 0 500 500" fill="none" xmlns="http://www.w3.org/2000/svg">
<g clip-path="url(#clip0_580_2)">
<path d="M60.624 371.06L60.952 374.012L61.116 377.62L59.968 383.524L52.752 385.328L47.012 383.852H44.224L39.14 385.492L35.532 385.82L32.416 386.148L28.316 385.82L25.364 384.016L23.232 380.08L23.396 376.472L24.38 371.06L25.036 368.764L24.216 364.5L24.38 361.056L23.56 353.348L24.052 350.068L31.432 347.772L37.992 347.608L40.78 347.28L44.224 347.936L57.016 347.28L61.936 358.432L62.264 364.992L60.624 371.06ZM59.148 375.98L59.476 374.012L58.492 372.044L55.704 371.224L54.556 370.732L53.08 369.42L53.736 368.436L50.128 369.748L48.324 369.912L50.292 371.06L48.98 371.388L48.16 370.24L48.324 367.452L47.176 366.632L45.536 368.272L45.372 367.616L45.864 366.14L46.356 364.008L47.176 365.156L47.832 364.008L46.356 363.024L44.388 361.876L44.06 361.056L45.372 360.892L46.028 358.596L47.176 359.744L48.16 359.58L47.996 361.548L49.636 360.072L51.112 361.056L53.9 360.564L52.588 360.072L51.44 357.284L52.752 356.464L52.096 355.48L50.948 355.644L50.456 356.628L51.604 358.268H50.292L49.636 356.956H48.324L49.636 356.136L51.768 354.004L52.916 354.168L53.572 353.184L55.212 352.528L54.72 354.824L56.688 354.168L55.376 355.152L55.704 356.464L55.376 358.432L56.688 356.792L57.836 356.628L56.032 358.596L57.672 360.072L59.64 359.416L60.132 357.284L58.984 356.136L59.64 354.496L58 353.02L57.508 352.2L55.212 352.364L55.54 350.724L54.228 349.576L51.112 351.708L49.636 349.248L47.832 350.396L48.652 353.84L48.816 354.66L47.504 354.496L47.012 356.628L46.848 355.644V353.348L46.192 353.02L45.044 350.888L43.732 349.412L42.912 350.232L43.24 351.38L44.06 351.544L42.42 352.2L42.092 353.184L41.108 350.56L39.796 350.888L38.484 351.544L37.336 352.036L36.024 351.872L37.008 353.348L35.86 354.168L36.352 352.692L34.876 351.216L34.384 352.692L31.924 354.988L32.416 355.644L32.908 356.464L33.892 354.332L33.728 355.316H34.712L34.876 356.464L33.564 358.268L30.284 358.104L31.104 359.908L32.088 360.072L30.776 361.056L32.088 360.4L33.4 359.416L34.876 358.268L35.696 358.76L37.008 358.268L35.696 358.924L35.532 360.728L37.172 361.712L38.648 360.892L37.992 359.58L39.96 358.924L41.272 359.088L41.108 359.58L41.436 360.892L43.076 361.384L43.896 361.22L43.24 362.696L44.224 363.844L44.552 363.024L46.192 363.68L44.88 364.008L44.552 365.648L43.732 366.304L44.06 365.32L43.076 364.664L41.764 363.188L39.796 363.68L41.272 366.796V367.944L40.124 366.796L39.632 367.288L39.14 367.944L38.648 370.568L38.32 373.028L39.632 371.88L41.436 371.716L41.928 370.404L42.912 370.896V369.42L45.044 370.732L43.896 371.88L43.404 373.356L41.764 372.7L40.124 373.52L41.272 373.028H42.256L40.616 374.176L39.796 375.16L39.14 373.684L38.484 374.668L37.664 373.684L38.32 376.144L36.352 377.292L37.5 377.948L38.156 378.276L37.992 379.424L38.812 378.44V381.392L41.108 381.064L43.404 381.392L43.568 380.408L44.88 382.048L44.06 380.244L44.88 379.588L45.044 378.112V379.588L45.536 378.768L45.7 379.752L47.34 380.244L47.832 382.54L49.636 382.212L50.128 380.408L48.488 379.096L47.668 376.636L48.652 376.144L49.472 375.98H51.112L52.096 374.012H50.456L51.604 373.52L51.112 371.388L50.292 370.076L51.44 370.732L51.768 372.864L53.08 375.652L53.572 376.308L53.9 375.652L55.048 375.16L55.376 375.816V376.964L55.212 377.784L56.688 377.456L58.328 377.62L58 376.8L59.148 375.98ZM34.22 349.576L33.236 350.232L33.4 351.38L34.22 349.576ZM29.136 349.576L28.644 353.512L30.94 353.84L32.252 351.872L31.432 349.904L29.136 349.576ZM41.108 356.464V357.94L40.78 355.972L37.008 358.268L38.648 356.956L37.992 354.824L38.156 352.364L38.976 352.528L38.812 353.512L40.124 355.808L40.944 355.972L41.436 355.152L40.616 354.824L42.092 354.332L43.896 356.136L43.732 357.12L42.912 357.448L41.108 356.464ZM36.188 354.824L37.828 354.004L37.5 354.988L36.188 354.824ZM47.34 358.268L47.012 356.628L48.16 356.956L49.964 358.268L48.652 357.776V359.252L46.028 358.596L45.208 358.76L47.34 358.268ZM24.872 359.908L28.808 360.728L29.956 361.548L30.448 360.564L28.972 358.432L28.644 357.448L27.496 358.268L26.348 358.104L24.872 359.908ZM53.9 360.072L54.064 358.432L52.588 357.612L53.9 360.072ZM38.976 362.04L40.124 361.384L39.304 361.22L40.78 359.908L38.976 360.236L38.648 361.22L38.976 362.04ZM59.312 367.944L60.952 366.632L60.624 364.5L59.804 363.68L60.132 362.204L60.788 363.352L60.952 361.384L59.148 360.4L59.64 361.22L56.36 360.564L56.196 361.384L54.72 361.712L55.704 363.68L56.032 364.664L57.016 365.812L57.672 364.336L58.492 364.008L57.508 367.616L56.688 369.748L58.328 368.928L58.656 368.108L58 367.288L59.312 367.944ZM46.684 361.712L47.996 360.4L44.88 361.22L46.684 361.712ZM33.728 364.5L32.744 364.664L34.548 362.368L32.744 361.056L30.612 361.876L29.792 364.336L30.12 367.452L30.776 367.944L30.448 369.748L28.48 369.42L27.66 371.716L27.004 373.52L29.136 372.864H30.12L31.104 371.552L31.924 373.192L34.384 372.864L35.04 374.012L35.204 374.832L36.024 374.176L36.352 373.848L36.68 373.028L36.188 371.88L36.68 370.076L34.548 368.764L34.876 367.452L35.204 366.632L36.516 367.452L38.156 366.632L37.664 365.32L38.812 363.844L37.172 362.532L35.204 363.352L34.876 364.5V365.812L33.892 365.976L33.728 364.5ZM49.308 361.384L49.964 362.368L49.8 363.68L50.784 363.188L49.308 361.384ZM49.964 369.092L49.636 368.108L48.98 367.944L49.472 367.78L49.636 368.108H49.8L51.604 368.436L52.916 367.78L53.736 367.288L53.572 366.632L53.9 365.156L55.376 365.648L53.9 364.008L53.736 362.86L52.424 363.352L51.44 362.86L50.62 364.664L48.488 365.648V367.944H48.98L48.652 368.108L49.144 369.42L49.964 369.092ZM28.316 363.68L28.644 364.5L28.972 362.86L28.316 363.68ZM53.08 366.632L52.424 367.124L51.276 366.96L52.26 366.632L51.276 366.468L52.26 365.812L53.08 366.632ZM55.54 366.468L54.72 367.944L55.54 368.436L56.36 367.944V366.96L55.54 366.468ZM31.432 366.796L32.252 366.96L33.072 367.78H33.892L33.072 367.944L31.76 367.78L31.432 366.796ZM46.356 371.06L47.668 370.404L47.176 373.028L46.356 371.06ZM44.88 377.62L43.896 377.292L42.912 377.128L40.616 377.784L40.288 377.456L41.764 375.816L42.912 376.144L44.552 375.16L45.864 374.504L46.028 373.192L47.176 373.028L46.848 374.504L45.208 374.832L44.716 376.472L45.864 376.8L44.88 377.62ZM52.26 378.276L52.424 377.128L51.604 376.472L50.456 376.8L50.292 377.948L52.26 378.276ZM27.168 380.408L28.808 378.932L28.152 376.636L24.872 379.916L27.168 380.408ZM34.384 382.704L35.532 381.72L35.204 379.752L36.68 380.244L36.352 378.768L33.892 378.604L33.4 379.096L33.236 381.556L32.908 382.704L33.728 383.524L34.384 382.704ZM58.492 380.9L57.344 379.26L55.212 379.424L54.064 378.604L53.244 379.752L54.556 381.392L55.868 382.048L58.492 380.9ZM29.464 382.704L32.416 379.588L30.284 379.096L28.808 380.736L29.464 382.704ZM37.828 381.884L37.008 381.064L35.86 381.392L36.516 383.36L37.5 383.032L37.828 381.884ZM145.945 366.14L146.765 368.6L146.437 371.388L144.633 382.704L141.681 385L132.825 385.492L130.365 384.344L127.085 385L123.805 385.328L119.049 385L109.373 383.032L102.813 382.54L89.037 372.208L86.905 369.912L82.641 359.908L82.477 356.464L82.641 349.74L83.297 343.672L83.461 340.064L81.493 334.816L81.657 331.536V328.42L78.705 328.912L75.917 328.584L69.521 327.928L67.061 327.108L64.929 320.876L63.945 318.58L64.437 315.628L63.945 312.676L64.929 307.1L69.029 299.72L72.309 299.556L79.197 298.736L83.133 298.9L83.461 294.144L81.165 287.912L81.329 284.304V281.844L82.313 276.76L82.477 273.808L87.561 268.56H93.137L99.369 268.724L105.929 268.396L109.045 267.904L111.833 268.232L115.441 268.396L119.377 269.872L119.869 276.596L119.049 279.22L118.721 284.796L119.541 287.42L119.869 293.16L120.033 299.72H123.313L125.773 300.048L132.661 299.72L137.745 299.884L140.533 299.556L144.469 304.64L145.289 309.232L144.469 315.136L145.289 317.924L145.945 324.32L143.649 327.6L139.549 329.568L134.465 328.42L125.773 328.584L119.049 328.42L119.869 334.652V346.296L120.525 349.904L127.905 353.676L133.153 355.316L135.941 354.988L137.909 354.824L144.797 355.972L146.273 363.024L145.945 366.14ZM102.157 275.776L101.829 277.088L102.813 277.908L104.125 277.58L104.453 276.268L102.157 275.776ZM93.957 279.548L91.005 282.336L93.301 281.844L93.957 279.548ZM111.013 281.844L109.537 283.156L109.865 285.124L111.833 285.78L111.013 281.844ZM99.533 285.288L98.549 287.256L99.861 289.224L103.141 286.928L101.829 285.124L99.533 285.288ZM90.677 286.6L89.529 285.944L90.513 287.912L90.677 286.6ZM87.561 288.732L86.085 286.928L86.741 290.864L87.561 288.732ZM96.253 289.224H95.105L96.581 292.176L97.401 290.7L96.909 289.552L98.713 289.88L98.221 288.568L96.909 288.404L96.253 289.224ZM109.045 288.568L106.749 288.404L107.241 289.388L108.389 289.552L109.045 288.568ZM101.173 290.044L104.289 291.52L103.141 289.88L101.173 290.044ZM85.101 290.864L85.429 292.504L85.101 293.488L87.069 294.308L87.561 292.996L86.085 292.176L86.249 290.208L85.101 290.864ZM92.153 294.144L93.629 293.16V291.356L91.989 290.536L92.153 294.144ZM98.877 292.832L100.189 292.996L101.009 291.848L99.205 290.536L98.385 291.684L98.877 292.832ZM88.545 293.652L88.381 296.276L89.201 295.128L88.545 293.652ZM112.489 297.096L111.669 297.916L113.309 299.228L113.965 298.408L113.637 297.26L112.489 297.096ZM95.925 301.852L96.745 300.54H95.925V301.852ZM104.125 303.492L104.781 302.18L103.961 300.868L102.485 301.032L101.829 302.344L104.125 303.492ZM70.833 303.164L70.341 304.804L72.473 302.836L70.833 303.164ZM95.597 305.296L94.121 304.148L93.793 307.756L95.433 307.1L95.597 305.296ZM104.945 308.248L103.797 307.264L105.109 306.28L103.797 304.476L101.501 304.64L100.517 306.772L101.173 307.756L100.845 309.56L104.453 310.38L104.945 308.248ZM116.589 306.608L115.441 304.64L113.309 304.804L115.933 307.756L116.917 308.084L117.901 307.428L115.933 307.756L116.589 306.608ZM124.953 305.46H123.805L124.953 307.428L125.609 306.444L124.953 305.46ZM122.821 305.788H120.689L123.805 307.756L122.821 305.788ZM111.013 309.396L112.981 308.084L114.293 308.74L113.965 306.116L112.981 306.772V307.92L111.669 308.084L111.013 309.396ZM83.625 306.28L81.985 308.084L83.133 307.92L84.281 308.412L85.265 307.756L84.445 308.412L85.921 309.724L87.725 309.232L86.741 308.904L84.937 306.608L83.625 306.28ZM90.841 309.396L87.397 308.084L88.873 309.724L91.169 309.396L92.481 309.888L91.989 307.92L92.809 306.608H91.825L90.513 307.756L90.841 309.396ZM107.241 308.248L105.929 308.74L108.389 309.068L107.241 308.248ZM97.401 308.412L95.597 308.576L97.729 311.528L98.385 309.888L97.401 308.412ZM71.817 308.904L70.997 310.708L74.933 310.216L73.785 308.576L71.817 308.904ZM127.577 308.74L126.265 311.528L127.741 311.364L128.397 309.888L127.577 308.74ZM95.761 309.724L93.465 309.396L91.989 311.036L95.761 309.724ZM89.365 312.512L90.349 311.2L89.529 309.724L89.365 312.512ZM75.589 311.528L76.573 309.888L75.589 310.38V311.528ZM125.937 311.856L125.445 310.38L123.477 310.052L123.149 313.496L123.477 314.972L125.445 312.84L124.789 315.136L126.757 315.628L128.233 314.316L127.741 312.348L125.937 311.856ZM81.001 310.872L79.361 312.184L82.149 311.692L83.297 312.84L83.625 311.364L82.641 310.38L81.001 310.872ZM115.113 313.332L115.441 312.02L114.457 310.872L115.113 313.332ZM110.029 312.184L109.373 313.66L110.357 314.972L111.997 314.808L111.833 313.332L113.309 312.348L113.965 313.496L113.637 311.528L112.817 311.036L111.505 312.02L110.029 312.184ZM135.941 313.004L137.253 314.152L137.909 313.332L136.925 312.348L136.433 311.528L135.941 313.004ZM104.125 315.464L104.781 311.528L102.977 312.184L102.649 314.152L104.125 315.464ZM129.709 313.168L129.873 313.988L131.185 313.824V313.004L129.709 313.168ZM90.349 313.004L89.365 315.136L90.513 317.104L92.809 316.94L90.349 313.004ZM98.549 315.3L99.041 316.284L97.073 316.776L98.057 317.924L99.533 317.104L101.337 317.268L101.829 313.988L99.861 313.66L98.549 315.3ZM71.653 316.12L72.801 316.94L72.145 318.416L73.129 318.252L73.293 316.94L74.605 316.448L73.457 313.824L71.817 314.48L71.653 316.12ZM133.973 314.316L133.481 316.12L134.793 317.596L136.597 317.104L135.941 313.824L133.973 314.316ZM108.717 314.152L104.781 314.972L107.077 315.792L108.717 314.152ZM123.313 316.448L124.133 314.972L123.313 315.464V316.448ZM80.837 318.744L82.477 320.384L84.117 318.908L83.461 316.94L81.493 316.284L80.017 317.596L80.837 318.744ZM128.561 321.532L129.053 319.728L127.905 318.416L127.085 318.58L125.773 317.432L124.461 318.908L125.117 320.712L126.757 321.696L128.561 321.532ZM119.213 319.892H117.573V321.04L118.557 321.532L119.541 321.04V320.056L120.689 321.204L122.821 320.548L123.313 318.416L119.213 319.892ZM83.461 324.812L85.265 324.32L86.249 324.156L87.233 324.976L87.397 323.992L88.873 322.352L85.757 320.22L84.117 319.564L82.313 321.04L85.593 320.384L84.609 321.532L84.445 322.68L83.461 324.812ZM95.597 322.352L96.745 324.156L98.385 323.008L99.861 322.024L98.549 320.22L96.417 320.548L95.597 322.352ZM77.885 324.156V322.68L76.573 322.024L77.885 324.156ZM129.709 323.172L131.513 323.828L130.037 322.024L127.741 322.352L129.381 323.008L130.365 326.288L130.857 324.156L129.709 323.172ZM73.949 326.288L75.261 324.648L74.605 322.68L72.473 322.352L73.949 326.288ZM104.125 323.5L101.993 322.844L100.517 324.32L100.025 324.484L97.893 325.96L97.237 327.272H96.089L95.925 326.452L94.777 326.78L94.285 325.632L93.301 326.78L93.957 328.42L95.105 328.748L96.417 328.42L98.549 329.24L97.729 331.044V332.028L99.861 333.012L101.337 334.98L102.485 333.34L103.469 333.176L104.945 330.716L104.453 329.568H102.321L101.173 329.896L101.009 331.7L100.353 331.864L100.025 330.06L100.353 329.076L99.697 328.256L101.993 325.796L102.977 326.944L104.617 325.468L104.125 323.5ZM133.973 323.336L132.333 323.5L131.513 324.976L132.497 326.288L133.973 323.336ZM80.181 324.32L81.821 325.468L82.805 325.304L83.297 324.32L81.821 325.304V324.484L81.001 323.992L80.181 324.32ZM89.365 324.32L88.053 325.304L91.169 326.452L92.153 326.78L91.989 325.96H91.005V324.976L89.365 324.32ZM83.133 328.42L85.101 329.24V329.404L86.577 330.388L87.069 329.404L88.381 331.536L89.365 330.716L90.513 331.372L89.201 329.732L90.349 328.912L89.857 327.6L88.381 328.256L87.561 326.616V327.764L84.773 326.288V327.272L84.609 324.976L82.805 326.288L83.133 328.42ZM104.289 326.616L106.913 327.6L105.929 326.288L104.289 326.616ZM109.701 326.78L108.389 329.896L110.193 330.716L111.833 329.404L111.997 327.108L110.849 327.272L109.701 326.78ZM101.009 327.108L100.845 328.748L101.665 328.42L101.009 327.108ZM106.421 327.6L105.601 328.256L107.569 328.092L106.421 327.6ZM84.937 328.42L85.101 329.24L84.937 328.42ZM92.317 329.404L91.005 329.24L90.185 330.224L92.317 329.404ZM108.225 333.996L110.521 334.16L108.061 330.388L107.569 329.568L105.929 330.388V332.192L107.733 333.012L108.225 333.996ZM93.465 334.16L93.793 333.832L93.957 331.372L92.317 331.208L91.333 332.684L92.153 334.16H93.465ZM85.921 334.16L86.741 333.668V332.684L85.757 332.192L85.921 334.16ZM88.053 334.98L86.577 335.8L87.725 336.456L88.873 335.964L90.021 336.128L91.169 334.816L88.873 333.012L88.053 334.98ZM103.961 333.34L106.913 334.98L105.929 333.176L103.961 333.34ZM94.777 333.504L95.433 334.652L96.745 334.816L94.777 333.504ZM103.141 338.424L101.829 334.652L101.337 336.948L103.141 338.424ZM108.389 337.276L110.029 338.26L109.373 340.392L112.325 337.768L110.849 337.932L112.161 337.44L108.553 334.98H107.405L107.241 336.292L108.389 337.276ZM112.161 336.128V335.144L110.521 336.292L111.341 336.62L112.161 336.128ZM97.893 338.588L98.713 338.752L99.697 336.948L97.729 336.784L98.057 335.144L97.073 336.292L96.581 337.604L95.925 336.292L95.105 335.144L93.629 335.308L93.793 337.112L94.121 338.26L93.629 340.392L94.613 339.408L94.777 340.884L96.089 341.048L97.237 341.376L98.057 340.556L97.729 339.572L97.893 338.588ZM89.857 338.26L92.153 338.424V337.112L91.005 336.456L89.037 337.276H89.857V338.26ZM86.413 336.784L84.609 337.44L84.445 339.408L85.921 340.556L86.413 336.784ZM87.069 336.784L88.381 337.932L88.053 337.112L87.069 336.784ZM105.601 337.768L106.257 338.752H107.405L106.093 336.784L105.601 337.768ZM112.981 341.376L116.917 338.916L114.949 337.932L112.981 339.08V341.376ZM104.453 343.836L104.289 342.196L104.125 339.736L104.453 338.26L102.485 338.916H101.173L101.009 339.736L99.697 339.9L98.385 341.048L98.877 343.18L100.353 343.672L100.517 344.492L103.141 344.984L104.453 343.836ZM107.733 340.064L105.929 339.408L106.585 343.016L108.061 341.868L107.733 340.064ZM114.129 344.656L115.605 343.836V342.032L114.129 341.048L112.653 341.704L110.357 341.54L109.209 343.344L110.193 345.476L113.473 343.836L114.129 344.656ZM87.889 341.048L84.445 342.196L85.921 343.344L87.561 342.852L87.889 341.048ZM89.529 344.164L91.989 342.524L90.349 342.688L89.529 344.164ZM93.301 343.836L94.449 345.312L95.597 345.804L95.269 347.28L96.745 347.608L97.893 346.46V344.984L98.877 345.476L97.073 343.18V344.492L96.253 344L95.597 342.688L94.121 343.344L93.301 343.836ZM89.201 343.836L87.889 343.508L89.857 345.148L89.201 343.836ZM112.489 348.1L111.997 347.772L111.341 345.804L109.373 345.476L108.881 348.92H111.013L111.505 349.74L112.653 349.576L113.801 350.724L113.145 347.936L112.981 348.92L112.489 348.1ZM105.601 348.756L105.765 345.804L104.125 347.28L103.469 348.264L103.141 349.084L102.485 350.068L102.977 351.052L104.453 350.724L105.601 350.232V348.756ZM92.809 346.46H91.333L93.465 347.772L92.809 346.46ZM94.941 346.624L93.793 347.28L93.957 348.592L94.941 346.624ZM99.861 349.412L101.665 349.248L102.485 347.608L99.861 349.412ZM91.333 351.38L91.005 350.232L90.513 352.2L91.333 351.38ZM86.577 357.284L88.545 357.776L89.857 356.464L89.037 354.824L87.889 355.48L88.217 354.66L88.053 353.348L87.397 352.2H86.085L85.921 354.66L86.577 355.644L88.053 355.808L86.577 357.284ZM101.337 353.676L101.009 352.364L98.549 353.02L99.041 354.496L100.353 354.824L101.337 353.676ZM107.241 353.512L109.865 355.808L110.357 356.792L113.309 354.988L112.325 353.184L110.357 353.348L109.373 354.004L107.241 353.512ZM96.745 354.168L94.777 354.004L95.597 354.66L96.745 354.168ZM97.073 355.316L95.269 356.3L96.089 356.792L96.909 356.3L97.073 355.316ZM114.293 355.316L115.113 357.284L115.277 355.972L114.293 355.316ZM116.261 357.448L117.901 358.596L116.425 355.48L116.261 357.448ZM133.317 357.448L137.089 358.432L136.597 356.464L134.629 355.972L133.317 357.448ZM106.093 356.628L106.257 357.448L107.569 356.628H106.093ZM112.161 356.956L109.865 356.792L111.013 357.612L112.161 356.956ZM126.101 356.792L124.789 358.432L128.233 357.12L126.101 356.792ZM91.005 361.384V362.204L92.481 362.86L94.613 362.204H95.597L94.449 361.548L93.957 359.58L94.777 357.94L93.137 357.12L91.333 358.104L91.497 360.072L91.005 361.384ZM120.525 360.072L120.197 361.712L120.033 362.86L121.345 362.696L123.477 361.876H124.625L123.641 361.22L123.969 359.58L122.165 358.104L120.853 358.76L120.525 360.072ZM102.649 362.696L103.305 361.876L102.321 361.22L102.157 359.908L102.321 358.596L100.845 359.58L99.697 360.4L101.337 361.712L101.501 363.024L101.173 364.008L102.649 362.696ZM112.161 362.04L115.441 361.876V359.908L113.801 359.088L111.997 360.072L112.161 362.04ZM97.729 361.056L95.269 360.4L95.925 362.532L98.057 363.188L99.697 361.548L97.893 361.056L98.057 360.236L97.073 359.416L97.729 361.056ZM130.857 360.564L130.365 361.712L131.185 362.532L132.169 362.204L132.005 360.4L130.857 360.564ZM109.537 363.844L109.701 363.352L108.717 361.22L106.749 362.04L105.437 362.532L104.289 362.86L103.797 364.664L105.109 364.336L106.421 364.172L106.257 365.156L106.913 366.14L105.765 367.452L104.289 368.272L105.109 367.288L103.469 367.944L103.141 369.912L101.665 370.076L102.649 371.224L104.125 371.06L105.929 370.732L106.093 369.912L107.077 368.928L109.209 366.96L109.373 365.484L109.537 363.844ZM90.513 362.368L88.873 361.712L87.889 361.548L87.069 362.696L87.561 364.172L89.201 364.008L90.185 363.68L90.513 362.368ZM97.729 371.552L97.565 373.684L99.861 370.404L97.401 370.732L98.713 370.076L96.745 369.748L97.729 369.584L98.385 367.288L99.205 367.78V365.156L97.729 364.992H100.681L98.713 363.844L97.565 364.5L97.073 363.68H95.433L94.285 362.86L94.941 364.172L94.449 365.976L93.629 366.304L94.777 366.468L94.941 367.452L93.957 368.436L96.745 371.388L95.761 371.88L97.729 371.552ZM116.261 364.664L116.917 362.86L116.097 363.516L116.261 364.664ZM120.361 363.024L118.885 364.172L119.213 365.812L120.853 366.632L120.361 363.024ZM130.529 366.632L133.645 363.68L131.677 363.024L130.037 364.5L130.529 366.632ZM112.325 365.156L111.997 363.844L111.341 366.14L112.325 365.156ZM90.185 369.256L89.365 366.14L90.349 366.304L87.069 364.008L88.053 366.14H89.201L88.709 367.944L90.185 369.256ZM115.933 365.812H116.917L115.605 364.828L114.293 364.172L115.933 365.812ZM124.953 367.288L124.133 366.14L124.297 368.6L124.953 367.288ZM119.049 367.616L118.885 366.304L118.065 368.436L119.049 367.616ZM92.153 369.092L91.169 370.404L94.121 369.256L92.481 369.092L92.809 367.78L92.153 369.092ZM99.697 367.944L100.517 369.584L102.485 369.748L99.697 367.944ZM111.505 368.108L110.849 368.928L113.145 369.256L112.653 368.272L111.505 368.108ZM123.477 371.552L123.641 369.912H122.493L121.181 368.6L119.213 369.256L118.721 371.388H120.689L122.001 372.208L123.477 371.552ZM107.077 370.568L108.225 370.896L109.045 370.076L108.717 368.928L107.077 370.568ZM101.829 375.816L102.977 373.848L102.485 372.044L101.829 371.224L100.845 371.388L101.009 372.372L98.385 373.684L98.877 375.816L98.057 376.472L98.877 377.784H100.517L101.009 375.816H101.829ZM124.297 373.356L125.445 374.34L126.265 371.552L124.789 371.88L124.297 373.356ZM130.201 374.012L130.365 372.7L129.217 372.044L128.069 372.536L129.053 374.668L130.201 374.012ZM111.341 373.356L112.981 373.848L114.293 372.536L111.341 373.356ZM127.905 374.832L127.577 374.012L126.265 374.668L126.593 375.488L127.905 374.832ZM136.105 376.636L136.925 375.652L134.793 376.636H136.105ZM107.897 380.572L109.209 380.08L106.913 379.752L107.897 380.572ZM118.065 380.408L119.377 381.884L119.213 380.9L118.065 380.408ZM246.678 332.028L248.81 343.508L248.154 348.756L247.662 351.052L244.218 352.036H240.774L233.886 351.872L230.606 351.544L224.374 352.036L221.258 351.052L215.682 351.872L212.074 352.036L208.794 352.364L201.414 352.036H195.51L196.494 359.58L198.626 363.024L206.17 360.072L211.254 357.448L214.698 357.612L221.094 358.268L227.654 358.432L230.442 357.612H239.462L246.186 361.22L245.53 364.172L244.054 366.796L240.118 372.864L234.542 378.44L225.522 382.048L222.078 383.688L219.126 385L215.518 384.836L211.91 385.82L201.414 386.968L196.986 386.804L188.13 385.164L185.014 385L182.39 383.524L179.274 382.704L169.27 377.292L165.17 373.356L161.07 368.436L159.102 365.648L157.954 358.924L154.51 348.1L154.182 344.656L153.854 342.524L154.674 343.344L155.002 342.032L155.166 337.604L156.642 330.552L157.954 323.336L160.25 319.892L164.842 312.84L166.81 310.872L169.27 308.084L175.83 303.656L178.454 302.016L181.242 301.524L189.278 299.392L192.558 298.736L195.018 297.588L201.086 296.932L209.122 299.556L212.238 299.884L215.518 300.54L220.93 301.36L224.046 302.344L227.818 303.328L233.394 306.772L237.986 312.84L242.578 317.268L245.202 323.5L247.006 329.732L246.678 332.028ZM191.246 303L191.082 303.82L192.886 303.492L192.23 302.672L191.246 303ZM218.798 304.148L217.978 305.788L218.962 307.592L220.602 306.936H221.586V303.164H219.454L218.798 304.148ZM185.834 303.984L185.67 305.132L186.654 305.788L186.982 303.492L185.834 303.984ZM205.678 304.148L203.71 303.656L206.334 306.28L205.678 304.148ZM210.762 305.624V307.756L212.73 308.74L214.37 305.46L212.566 304.476L210.762 305.624ZM200.758 304.476L199.774 305.132L200.758 305.624L200.594 307.264L201.906 306.608L202.07 305.132L200.758 304.476ZM180.094 306.772L181.242 307.592L182.554 306.936L182.718 305.46L180.094 306.772ZM222.242 306.608L223.882 306.772L223.554 305.952L222.242 306.608ZM206.662 306.772L207.154 308.248L207.482 306.608L206.662 306.772ZM224.374 308.74L222.242 307.264L221.422 308.412L221.914 309.724L223.39 309.888L224.374 308.74ZM177.962 307.92L177.142 309.396L177.962 310.708H179.602V307.92H177.962ZM225.03 311.036L223.226 309.888L222.57 311.036L223.226 312.184L224.046 312.348L223.554 314.316L225.03 315.628L226.834 315.136L226.506 313.66L227.326 312.512L226.998 311.036L227.818 312.84L227.162 310.052L227.818 308.248L225.85 308.74L225.03 311.036ZM217.322 309.724V311.036L218.634 311.2L220.11 313.168L220.438 312.348L220.93 313.168H222.406L220.766 310.708L219.782 310.872H218.798L219.618 309.56L218.306 308.904L217.322 309.724ZM199.118 309.724L198.79 311.528L201.742 312.348L202.234 310.544L200.922 309.232L199.118 309.724ZM229.95 310.38L227.654 309.396L228.474 310.544L229.95 310.38ZM208.138 311.036V309.56L206.826 311.692L208.138 311.036ZM231.426 314.152L230.934 312.676L229.458 312.512L228.31 314.152L228.146 315.956L231.262 316.284L229.786 318.088L231.918 318.58L233.23 319.072L234.05 320.548L235.854 319.072L238.314 319.728L241.266 322.024L240.774 321.532V319.236L239.298 318.088L240.282 316.448L238.314 315.3L236.346 316.284L235.854 318.908V317.268L234.542 316.612L233.886 315.464L236.346 314.644L234.706 314.316L233.886 315.136L232.246 314.972L231.262 316.284L231.426 314.152ZM208.794 313.004L207.81 312.512L206.334 315.3L206.662 316.284L208.138 317.924L209.122 317.104L208.63 315.792L209.45 315.136L209.778 313.988L210.106 312.676L208.794 313.004ZM173.534 313.168L173.37 314.48L174.518 315.136L173.534 313.168ZM193.706 313.66L193.214 315.464L196.33 316.284L196.822 314.48L195.51 313.168L193.706 313.66ZM212.074 313.332L213.714 314.316L213.222 313.332H212.074ZM216.338 314.972L218.306 315.136L218.47 313.988L217.486 313.332L216.502 313.824L216.338 314.972ZM201.906 315.792L199.118 313.496L199.938 315.464L201.906 315.792ZM215.026 314.808L214.534 313.66L213.058 315.464L214.206 315.628L215.026 314.808ZM166.318 315.136V316.612L168.942 315.136L167.63 314.48L166.318 315.136ZM179.93 319.236L176.814 319.4L177.634 320.876H179.438L180.75 320.056L181.57 319.564L180.914 318.252H183.702L184.686 317.924L185.178 316.12L183.866 314.972L183.374 315.956L182.062 314.48L180.258 315.792L179.93 319.236ZM217.322 317.76L216.338 316.12L216.174 318.088L216.666 318.908L217.322 317.76ZM224.866 318.252L226.014 319.236L225.194 316.776L224.866 318.252ZM221.586 323.336L222.078 322.516L221.258 321.532L222.078 321.04V319.072L219.782 318.416L217.814 317.104L217.65 319.236L219.454 322.68L220.274 325.14L221.586 323.336ZM226.014 319.564L226.834 318.416L226.342 317.268L226.014 319.564ZM205.842 320.056L207.318 320.876L206.826 322.352L207.81 323.664L208.138 322.844L210.434 324.156L211.254 322.68L210.434 321.204H209.122L209.942 319.4L211.582 317.76L209.942 317.268L208.302 317.924L206.662 318.252L205.842 320.056ZM164.35 318.416L165.334 320.384L167.466 321.04L167.794 321.532L166.81 322.352L168.778 323.828L169.434 324.648L171.238 324.32L168.45 321.86L167.958 320.548L168.942 319.728L168.45 317.596H167.466L164.35 318.416ZM228.638 319.072L228.474 318.252L227.326 319.4L228.638 319.072ZM189.934 320.384L188.294 321.368L188.458 323.336L190.262 324.32L189.934 320.548H191.902V319.4L190.754 318.744L189.77 319.4L189.934 320.384ZM175.83 319.728L174.846 318.744L173.698 319.072L174.19 321.368L175.502 321.04L175.83 319.728ZM237.822 322.844L238.97 321.368L237.494 321.532L236.018 320.056L234.05 323.992L232.246 322.68L232.738 323.992L231.918 324.976H234.542L235.362 325.96L235.198 324.648L236.838 324.484L237.002 323.664L237.822 322.844ZM228.146 320.548L226.834 321.204L226.67 322.68L227.982 323.5L228.146 320.548ZM230.114 321.04L228.638 322.024V323.828L230.114 321.04ZM196.002 331.372L198.954 331.536L204.366 332.028L207.81 332.848L208.302 331.864L208.958 328.256L204.038 321.696L195.838 323.664L195.346 327.928L196.002 331.372ZM194.362 325.796L192.066 322.844L190.918 322.024L191.574 323.828L191.246 324.976L192.558 326.288L194.362 325.796ZM171.894 322.844L171.73 324.156L172.878 324.976L174.026 324.32L173.862 323.008L173.206 322.024L171.894 322.844ZM213.878 325.14L214.206 324.156L214.534 325.796L216.338 325.468L217.158 323.664L216.01 322.188L214.042 322.352L214.206 323.336L213.386 322.352L212.238 325.468L213.878 325.14ZM225.03 323.008L224.374 323.992L224.866 324.976L226.014 325.14L225.03 323.008ZM231.262 325.632L231.918 324.156H231.098L231.262 325.632ZM239.626 324.648L238.15 324.484L239.134 327.108L240.118 325.96L239.626 324.648ZM181.734 325.96L182.39 324.648H179.438L180.258 325.96H181.734ZM171.73 327.108L171.566 324.976L167.958 327.272L166.81 326.452L165.17 327.436L166.646 330.388L168.286 329.568L168.122 327.272L169.762 328.256L171.73 327.108ZM212.074 324.976L209.122 327.436L210.926 328.092L212.402 326.944L212.074 324.976ZM229.95 327.436H230.77L230.606 326.616L229.294 325.14L229.95 327.436ZM223.718 328.42L225.03 328.748L225.85 327.764L225.522 326.452L223.39 327.272L223.718 328.42ZM182.39 327.928L181.406 327.6L180.75 328.42L181.078 329.404L182.062 329.568L182.39 327.928ZM234.05 329.568H235.69L237.002 327.764L235.198 328.584L234.214 327.764L233.23 328.256L234.05 329.568ZM217.322 329.24L215.518 328.256L214.862 328.748L214.206 329.732L216.83 331.536L217.322 329.24ZM212.73 331.044L212.074 329.24L211.91 330.388L212.73 331.044ZM236.182 329.404L235.362 330.88L236.182 332.192L237.822 329.404H236.182ZM179.766 331.044L178.29 332.684L179.438 334.488L180.258 335.308L181.078 334.98L181.242 333.832L182.39 333.012L183.538 331.864L182.226 330.224L180.75 330.552L179.766 331.044ZM226.506 330.552L224.21 331.208L227.49 334.488L227.818 333.504L229.458 334.324L228.146 332.192L226.506 330.552ZM242.906 331.864L243.562 332.848L243.398 330.716L242.906 331.864ZM161.89 332.356L161.562 334.488L163.366 335.8L163.858 331.536L161.89 332.356ZM215.354 331.536L214.534 332.192L215.518 333.504L216.338 333.012V332.028L215.354 331.536ZM183.046 333.996L185.998 332.684L184.686 331.7L183.21 332.356L183.046 333.996ZM223.882 333.996V333.176L223.718 332.028L222.57 331.7L221.75 332.356L223.554 333.012L222.078 334.816L223.226 334.98L223.882 333.996ZM237.822 335.472L236.51 335.964L236.018 337.932L237.494 339.244L239.298 338.588L238.97 335.8L239.134 334.816L239.954 334.16L239.298 332.028L236.674 332.52L235.034 333.012L233.722 333.176L234.378 334.16L233.722 335.964L235.034 337.604L235.526 334.816L237.33 333.668L237.658 334.652L237.822 335.472ZM171.238 334.98L171.402 332.684L167.466 332.356L167.302 334.652L169.27 335.964L171.238 334.98ZM212.238 335.308L213.222 334.98L211.09 333.34L210.926 334.652L212.238 335.308ZM216.338 334.16L215.026 334.324L217.486 336.456L218.306 336.292L218.47 335.472L217.322 335.144L216.338 334.16ZM178.454 334.488L176.978 335.308V336.948L178.454 334.488ZM231.426 335.308L232.738 336.948L232.574 335.8L231.426 335.308ZM192.886 338.916L193.542 339.736L194.362 338.26L193.87 335.472L193.05 335.964L192.066 335.472L190.426 336.784L190.754 338.916H192.886ZM223.718 339.408L224.538 337.932L223.718 336.292H221.914L220.93 337.932L223.718 339.408ZM209.286 340.884L210.27 338.752L209.45 337.604L210.598 337.44L209.778 336.456L208.302 336.948L207.318 336.456L205.842 337.112L204.858 336.456L204.366 338.588L203.546 339.244L205.678 340.228L206.826 339.408L206.99 341.048L209.286 340.884ZM213.714 343.508L212.238 341.376L213.058 341.212L214.534 339.408L213.714 337.276L211.418 336.948L211.582 341.376L211.09 342.36L212.074 343.672L213.714 343.508ZM183.866 339.572L180.914 336.948L180.586 338.916L182.062 340.228L183.866 339.572ZM231.262 337.44L230.77 338.424L231.098 339.244H232.082L232.246 337.604L231.262 337.44ZM215.354 338.588H217.65L217.158 337.604H216.01L215.354 338.588ZM220.766 341.048L222.242 339.572L218.142 338.26L218.634 340.392L220.766 341.048ZM227.49 340.228L228.638 341.048L229.95 339.244L228.802 338.424L227.654 338.916L227.49 340.228ZM172.058 340.72L170.91 342.36L171.566 344.164L174.846 342.852L174.026 341.048L172.058 340.72ZM219.126 342.688L220.438 344L219.618 340.884L219.126 342.688ZM231.426 343.672L231.754 342.524L231.098 341.704L229.95 341.868L229.622 343.016L231.426 343.672ZM238.642 346.46L240.774 345.804L239.626 342.032L237.494 342.688L237.002 344.984L238.642 346.46ZM176.814 342.196L175.502 343.016L178.126 342.852L176.814 342.196ZM233.722 345.804L235.526 344.984L232.246 342.688L232.082 344.656L233.722 345.804ZM195.346 344.328L194.362 343.672L195.346 345.64V344.328ZM188.95 344H187.638L188.786 346.296L189.606 345.148L188.95 344ZM183.374 347.116L184.522 346.624L184.686 345.312L183.374 347.116ZM179.11 347.608L177.798 345.968L176.322 349.904L178.454 349.576L179.11 347.608ZM201.25 349.576L202.562 347.936L201.906 345.968L201.25 349.576ZM230.77 347.28L231.426 345.968L229.294 347.28H230.77ZM168.778 349.576L170.746 350.068L172.55 349.248L172.878 347.116L170.746 347.936V346.132L168.778 347.28V349.576ZM192.722 349.084L193.214 347.116L189.606 348.92L189.278 351.052L190.754 349.904L192.722 349.084ZM193.706 349.412L195.674 348.264H194.362L193.706 349.412ZM212.074 350.068V348.264L210.434 351.052L212.074 350.068ZM167.138 350.068L166.318 349.248L165.662 351.38L166.81 351.052L167.138 350.068ZM160.414 350.232L161.726 349.248L160.25 349.412L160.414 350.232ZM183.046 352.364L184.194 350.724L183.046 351.216L183.21 350.232L181.57 350.068L180.586 351.38L181.242 352.856L183.046 352.364ZM164.022 352.856L161.234 350.396L161.89 352.528L164.022 352.856ZM176.486 354.332L176.322 353.512L178.782 351.052L176.486 351.708L176.158 352.692L174.354 352.036L173.042 353.348L173.206 354.824L173.534 353.84L175.174 355.644L176.486 354.332ZM189.934 354.168H193.214L192.23 352.528H190.426L189.934 353.676L189.114 353.84L188.458 353.02L188.786 354.496L189.114 354.824L189.934 354.168ZM185.998 354.004L187.474 353.676L185.014 352.856L185.998 354.004ZM164.678 354.168L167.466 355.316L167.138 353.84L165.826 353.348L164.678 354.168ZM182.226 357.94L184.03 357.12L182.882 356.3L180.914 353.676L180.75 354.988L180.586 356.792L182.226 357.94ZM177.47 353.84L176.65 354.66L176.978 355.644L178.946 355.152L178.618 354.168L177.47 353.84ZM167.958 356.136L168.122 357.776L169.598 358.432L170.91 357.448L169.27 355.152L167.958 356.136ZM189.114 356.792L190.098 357.448L191.41 356.136L190.59 355.316L189.442 355.644L189.114 356.792ZM185.834 356.464L188.458 358.924L187.966 356.792L185.834 356.464ZM177.47 361.876L179.438 361.712L180.258 359.908L179.11 358.268L177.142 358.432L177.47 361.876ZM189.606 358.76L191.738 360.236L191.082 358.924L189.606 358.76ZM188.95 361.548L190.262 362.86L190.426 363.68L190.754 362.368L189.934 361.384L190.098 362.368L189.606 360.236L189.77 359.416L188.95 358.924L189.442 360.4L188.95 361.548ZM168.942 360.892L169.27 362.368L170.582 362.86L170.254 359.908L168.942 360.892ZM191.246 363.68L193.542 364.5L193.05 361.876H193.87L193.05 361.384L192.722 359.908L190.918 361.384L191.246 363.68ZM218.962 363.024L220.766 364.5L222.898 363.68L223.39 361.384L221.586 359.908L218.962 363.024ZM215.682 361.548L214.862 361.384L216.174 362.04L215.682 361.548ZM187.31 363.68L185.998 364.008L186.654 366.796L188.13 366.304L188.622 364.828L187.802 363.844L189.114 364.5L187.31 362.04H186.982L187.31 363.68ZM164.842 365.484L165.498 363.516L161.89 362.368L161.398 364.5L162.71 365.976L164.842 365.484ZM199.774 364.828L198.79 366.96L202.398 368.6L204.038 368.436L206.006 368.272L206.498 367.452L206.334 368.6L208.466 369.912L209.942 371.224L211.746 370.568L212.074 369.092H213.058L213.878 367.616L212.894 366.304L212.074 367.124L210.598 367.616L212.074 367.944L211.746 368.764L209.45 369.584L210.27 369.256V367.452L211.254 366.14L210.598 364.664L207.81 365.976L205.186 363.844L204.038 365.976L203.218 366.468V365.648L201.086 364.664L199.774 364.828ZM192.394 366.468L192.722 364.992L191.738 364.008L192.394 366.468ZM213.386 364.992L211.746 364.828L212.402 366.468L213.386 365.976V364.992ZM186.326 367.452V365.976L185.014 365.156L183.702 365.976L186.326 367.452ZM170.09 367.616L171.238 368.928L170.746 365.976L170.09 367.616ZM187.966 369.584L187.638 370.732L189.442 371.388L189.934 370.404L189.114 369.42L187.474 366.796L186.654 368.272L187.966 369.584ZM177.306 367.452L177.634 369.092L178.618 368.928L178.29 367.288L177.306 367.452ZM184.03 370.896L186.326 368.272L184.522 367.944L183.374 369.256L184.03 370.896ZM179.602 375.652L180.914 374.668L180.75 372.536L176.486 373.684L177.634 371.388L177.306 370.404L176.814 368.108L176.65 370.568L175.338 370.896L174.682 372.864L176.322 374.012L177.306 375.16L179.602 375.652ZM182.226 369.748L183.374 368.436L181.898 368.928L182.226 369.748ZM179.93 368.6L179.766 370.568L180.75 370.24V369.256L179.93 368.6ZM173.206 368.928L171.566 372.208L173.37 371.06L173.206 368.928ZM175.338 368.928L173.37 371.388L175.01 370.732L175.338 368.928ZM196.986 370.24L193.87 369.584L194.362 371.06L196.002 371.388L196.986 370.24ZM206.17 371.552L207.154 370.076L204.366 371.388L206.17 371.552ZM219.782 371.388L218.306 371.88L221.094 372.372L219.782 371.388ZM199.118 371.552L198.462 373.52L199.446 373.356L199.774 372.372L199.118 371.552ZM205.842 373.848L206.498 373.028L206.334 372.208L205.842 373.848ZM198.79 374.176L201.578 374.504L200.266 373.52L198.79 374.176ZM189.442 377.62L191.082 375.98L190.59 373.684L186.654 374.832L186.982 376.144L187.31 376.964L189.442 377.62ZM204.038 378.604L204.858 377.784L204.53 376.472L202.726 378.276L204.038 378.604ZM180.094 379.26L180.914 378.44L180.75 377.292L179.602 377.128L180.094 379.26ZM199.446 381.392L200.922 381.228L200.758 378.604L199.282 378.768L198.626 380.244L199.446 381.392ZM187.474 383.36L188.294 381.392L186.982 379.752L187.474 383.36ZM343.282 350.724L346.562 350.068L351.482 354.988L350.826 361.712L348.53 364.664L347.054 367.616L340.33 372.372L338.034 374.996L334.918 377.128L330.326 380.572L320.978 383.032L313.762 386.968L302.938 386.64L299.494 386.476L291.95 385.984H288.342L285.062 384.016L279.322 382.212L274.566 378.276L268.99 373.848L259.806 362.04V359.252L258.002 353.348L258.494 345.476L256.526 335.144L256.198 330.388L257.674 327.764L260.298 323.172L263.578 316.612L265.218 313.66L268.17 311.528L271.778 307.92L275.058 305.952L278.01 303.492L284.078 301.36L286.866 299.392H290.31L293.426 298.244L300.15 298.736L311.63 297.096L315.238 298.9L320.322 302.18L327.866 302.672L333.77 306.116L336.394 307.264L338.69 309.232L341.642 311.528L346.234 317.76L347.874 320.056L350.334 326.288L351.81 329.896L346.89 335.144L340.002 333.832L334.262 334.98L331.802 334.488L329.014 334.652L325.406 333.832L321.47 334.324L314.582 334.16L309.006 331.372L307.53 327.928L300.806 326.616L298.51 333.504V340.556L297.526 344.984L297.034 347.608L298.182 351.216L299.658 354.496L301.462 357.94H307.366L309.006 354.496L314.09 350.724L321.47 350.56L325.078 350.068L328.85 350.56L334.426 350.396L340.33 350.068L343.282 350.724ZM302.446 299.392L301.134 300.376L301.298 302.016L302.938 302.672L303.922 299.884L302.446 299.392ZM313.926 301.852L313.598 303L314.582 303.984L315.238 301.524L313.926 301.852ZM317.042 303L316.386 303.82L317.206 305.296L318.518 304.148L320.322 302.836L318.026 303.164L317.042 303ZM310.646 303L310.154 303.82L310.646 304.64H311.63V303H310.646ZM307.53 303.656L307.038 305.296L310.154 304.476L309.006 303.328L307.53 303.656ZM297.034 303.82L295.558 303.656L296.542 306.28L297.526 305.132L297.034 303.82ZM329.178 304.148L325.57 305.132L326.226 307.264L328.194 307.756L329.67 306.28L329.178 304.148ZM282.438 304.476L281.946 305.952L282.93 307.264L285.062 305.46L284.078 304.148L282.438 304.476ZM294.902 304.804L293.098 305.624L293.59 306.772H294.738L295.394 305.952L294.902 304.804ZM306.874 305.624V306.608L307.694 307.1L308.514 305.624L307.694 305.132L306.874 305.624ZM291.95 305.788V306.772L292.934 307.264L292.77 305.296L291.95 305.788ZM323.274 305.46L322.946 307.428L324.586 308.74L326.39 307.92L323.274 305.46ZM319.83 308.248L320.158 306.608L319.338 306.936L319.83 308.248ZM286.374 307.92L286.046 307.1L285.062 306.936L284.406 307.756L286.374 307.92ZM311.794 308.576L311.63 307.592L310.646 307.264L311.794 308.576ZM316.222 307.756L314.746 307.264L313.762 308.248L316.55 309.232L316.222 307.756ZM289.818 307.756L288.998 309.396L289.982 311.036H291.95L289.818 307.756ZM299.494 308.74L297.69 308.412L298.838 312.02L299.822 310.872L300.642 311.692L299.986 313.66L301.462 313.988L302.446 313.004L302.118 311.364L299.494 308.74ZM308.842 308.904L306.382 311.2L308.022 311.692L309.17 310.544L308.842 308.904ZM320.65 309.068H317.37L318.19 310.544H319.83L320.65 309.068ZM311.794 313.004L312.45 310.052L310.646 309.724L309.498 311.036L309.99 312.676L311.794 313.004ZM304.906 310.708V312.02L306.054 310.052L304.906 310.708ZM288.342 310.544L287.194 311.036L289.326 311.2L288.342 310.544ZM306.874 314.808L308.186 311.856L306.546 312.02L305.89 313.496L306.874 314.808ZM282.766 312.84L281.946 314.152L282.438 314.644L283.094 315.792L284.406 315.628L285.226 314.152L284.406 312.84H282.766ZM273.254 313.004L272.434 313.988L273.09 315.136L274.566 313.004H273.254ZM323.274 313.168L321.962 313.824H319.502L321.47 314.808L323.274 313.168ZM276.206 313.496L275.222 315.464L276.37 314.808L276.206 313.496ZM299.166 315.464L297.69 313.824L297.362 314.972L295.722 317.76L296.542 317.924L298.838 316.776L299.658 317.268L299.166 315.464ZM268.334 316.284L267.022 316.612L267.514 318.252L269.154 318.744L270.466 317.432L269.482 315.956L270.466 314.316H268.826L268.334 316.284ZM309.99 314.644L309.334 315.956L310.154 317.268L311.63 317.104L311.138 314.644H309.99ZM288.014 315.464L291.13 316.284L289.818 314.972L288.014 315.464ZM320.814 317.924L321.142 316.284L319.994 315.136L318.354 315.464L320.814 317.924ZM314.582 315.3L316.222 317.76L316.058 316.12L314.582 315.3ZM304.25 316.12L304.578 315.3L303.43 316.284L304.25 316.12ZM304.578 318.744L304.906 317.104L304.086 317.76L301.79 317.104L300.314 315.464L300.806 317.104L301.298 318.58L302.938 319.072L304.578 318.744ZM287.03 320.548L285.554 320.876H284.57L285.39 319.564L286.046 317.924L285.226 317.268L283.914 317.104L284.406 319.564L284.242 320.712L282.93 320.056L282.274 321.368L280.306 322.516L278.01 323.664L278.666 325.14L280.306 325.304L281.454 325.14L282.438 324.648L284.57 322.844L285.554 324.32L287.686 325.14L289.49 323.828L287.03 320.548ZM305.07 318.252L305.726 319.4L306.874 319.728L308.678 318.58L307.694 318.416L307.038 317.268L305.07 318.252ZM289.818 320.056L289.982 322.352L290.966 321.204L291.13 319.728L292.606 321.04L292.278 319.892L291.13 319.728L292.278 317.596L289.982 319.072L289.818 320.056ZM292.77 319.564L293.59 318.088L292.442 318.744L292.77 319.564ZM269.318 320.384H268.17L267.678 321.368L268.17 322.352H269.318L269.646 320.876L270.466 320.712L270.302 319.4H269.482L269.318 320.384ZM294.082 322.68L294.902 321.86L294.41 320.712L293.426 321.04L292.77 320.22L292.606 321.368L294.082 322.68ZM312.614 321.696V323.992L314.582 320.384L312.614 321.696ZM302.118 320.876H301.298L299.822 320.384L299.002 320.712L298.674 322.024L299.658 323.008L299.986 321.696L300.314 323.172L301.462 322.188L301.298 321.368L302.118 320.876ZM279.486 320.712L276.862 322.024L278.174 322.844L279.486 322.188V320.712ZM317.042 326.124L317.862 325.96L316.878 322.68H315.73L313.926 321.86L314.09 322.844L315.074 323.172L314.582 325.14L313.762 325.304L313.106 323.992L311.63 324.156L313.762 325.304L312.614 325.468L314.09 325.96L314.91 325.304L316.058 326.616L317.042 326.124ZM308.35 323.992L309.662 323.008L306.874 323.5L308.35 323.992ZM295.722 325.304L298.018 327.436L297.526 325.796L295.722 325.304ZM265.71 325.96L263.578 325.468L264.562 326.288L265.71 325.96ZM266.53 326.78L266.038 325.796L265.054 327.6H266.038L266.53 326.78ZM290.31 329.076L288.834 329.568L291.95 332.356L292.442 330.224L291.95 328.912L293.098 329.404L294.082 327.272H292.278V326.452L291.294 326.124L290.802 326.78L289.818 327.764L290.31 329.076ZM295.23 326.78L296.706 327.6V326.452L295.23 326.78ZM268.17 327.928L265.546 329.076L264.07 329.404L264.234 330.88L266.366 330.716L268.662 329.568L269.154 328.256L268.17 327.928ZM284.57 329.896V329.076H283.094V329.896H284.57ZM296.542 333.34L298.018 332.192L297.854 330.552L297.034 330.224L297.362 329.404L295.722 329.568L294.246 330.88L293.098 332.192L294.902 332.684L296.542 333.34ZM263.906 330.552L261.118 331.372L262.102 333.012L262.922 333.668L264.234 333.176L264.398 331.864L263.906 330.552ZM288.506 332.192L289.49 332.52L290.31 331.864L289.982 330.88L289.162 330.552L288.506 332.192ZM281.454 333.832L282.274 333.504L282.11 332.684L282.93 332.52L284.406 333.996L283.75 331.864L282.93 331.044L281.29 331.372L281.454 333.832ZM285.718 333.668L286.538 332.192L284.898 333.176V335.144L285.39 334.324H286.538L286.866 333.504L285.718 333.668ZM265.382 334.98H266.858L267.514 333.668L265.382 334.98ZM293.918 336.784L296.542 335.472L295.722 333.996L293.59 334.488L292.77 334.16V336.128L293.918 336.784ZM266.202 335.964L265.054 337.276L267.186 336.456L267.35 336.128L267.678 334.16L266.202 335.964ZM276.698 334.98L277.026 336.62V338.424H278.83L279.65 339.244L281.454 340.72L282.11 336.128H280.798L279.814 334.488L278.994 334.98H276.698ZM272.27 335.472L270.138 334.652L268.17 336.128L270.63 339.244L271.614 338.424L272.598 338.916L272.434 337.768L272.27 336.292L272.926 337.44L274.402 335.308L273.09 335.144L272.27 336.292V335.472ZM260.626 334.816H259.478L260.626 336.784L261.118 335.8L260.626 334.816ZM285.062 335.144L283.75 337.604L285.226 338.424L286.538 337.604L287.03 337.112L288.834 339.572L288.67 337.604L287.358 337.112H288.998L285.882 335.636L285.062 335.144ZM265.71 335.8L264.726 336.292L264.89 337.276L265.71 335.8ZM291.13 337.44L290.31 336.292L290.638 338.916L291.13 337.44ZM263.25 347.608H264.398L266.858 348.1L267.022 350.232L267.678 348.756L267.186 347.772L268.334 346.952L268.17 345.312L270.466 342.36L270.794 343.672V345.804L269.318 346.788L271.45 347.772L273.254 345.804L273.09 344.164L274.074 344.328L272.598 343.016L271.778 342.524L270.63 342.196L267.842 339.572L267.022 338.752H268.17V337.768L267.35 337.276L266.53 337.768L267.022 338.752L266.202 338.424L264.89 339.08L264.234 341.212L265.382 340.884L264.562 341.376L266.694 344.82L264.07 345.312L264.234 346.624L261.774 345.312V346.952L263.25 347.608ZM276.37 339.736L276.862 341.048L278.174 341.212L278.994 340.228L277.354 338.752L276.37 339.736ZM286.046 340.556V341.704L288.178 341.54L288.014 340.392L286.702 339.572L286.046 340.556ZM275.386 341.868L275.058 340.392L273.582 340.064L272.598 341.048L272.926 342.524L275.386 341.868ZM285.39 341.704L284.242 340.228L284.734 343.344L285.39 341.704ZM294.246 342.524L295.886 342.36L294.246 342.032L294.082 340.884L290.146 341.54L290.474 343.672L289.49 344.328L291.786 345.476L292.114 346.788L293.426 347.116L294.246 346.132L293.426 344.984L293.262 344L295.066 343.672L294.246 342.524ZM261.938 344.492L259.97 343.18L260.626 344.328L261.938 344.492ZM283.914 343.836L282.11 346.296L281.126 347.28L281.454 348.592L281.618 350.888L282.93 350.724L283.422 349.412L282.602 348.428L282.438 347.444L283.914 347.772L285.39 349.412L284.898 345.64L283.914 343.836ZM263.25 349.904L264.234 349.576L264.398 348.592L262.594 348.428L263.25 349.904ZM272.762 354.332L274.566 353.512L274.73 352.036L275.386 350.888L273.254 349.576L272.598 350.724L271.45 351.052L270.63 348.756L269.318 349.248L268.99 350.724L270.138 351.708L271.45 351.216L272.762 354.332ZM292.278 350.068L292.934 350.888L291.786 353.348L293.918 354.332L295.886 353.02L295.558 350.724L293.426 349.904L292.278 350.068ZM284.242 351.872L285.39 351.544L285.554 350.396L284.242 351.872ZM285.882 350.724L288.506 351.708L287.522 350.396L285.882 350.724ZM277.518 351.544L279.978 353.512L279.322 351.708L277.682 351.544L278.666 350.724H276.862L275.878 352.528L277.518 351.544ZM262.758 353.512L263.906 354.168L262.594 352.2L262.758 353.512ZM261.282 357.448L263.578 354.496L261.938 353.184L259.806 354.004L259.642 356.136L261.282 357.448ZM286.374 355.48L285.226 353.84L285.39 357.284L286.374 355.48ZM292.442 357.12L294.246 357.612L295.722 356.136L295.066 354.332L292.442 357.12ZM319.502 354.66L318.846 355.808L320.814 354.824L319.502 354.66ZM273.91 357.12L274.074 355.972L272.762 356.628L271.778 357.448L272.926 357.284L271.942 358.596L273.91 357.12ZM268.826 356.464L267.022 358.76L268.498 358.924L269.482 357.776L268.826 356.464ZM319.994 356.464L318.682 357.448L318.846 359.088L320.322 359.744L321.47 357.284L319.994 356.464ZM282.602 361.548L283.914 360.236L284.078 358.432L283.586 357.612H282.602L282.11 358.596L280.142 359.088L280.634 361.056L282.602 361.548ZM304.25 365.484L304.742 364.5L305.562 364.992L306.71 363.024L307.858 362.532L308.022 360.4L306.218 359.58L303.43 360.072L302.446 359.744L299.822 359.58L299.002 357.94H297.034L296.87 361.384H298.838L299.822 359.908L300.15 361.712V364.664L301.626 366.304L303.758 366.96L304.25 365.484ZM321.142 362.532L322.126 361.876L321.962 360.728L320.978 360.236L319.994 360.892L321.142 362.532ZM311.958 362.204L312.122 363.68L313.926 363.516L314.582 361.712L313.434 360.4L310.974 361.876V362.86L311.958 362.204ZM317.534 361.384L317.206 362.696L318.354 363.68L319.994 361.876L318.846 360.892L317.534 361.384ZM279.486 361.876L278.502 361.056L277.19 361.22L276.862 362.532L279.486 361.876ZM265.054 364.008L265.382 365.812L268.498 365.156L268.006 363.352L267.022 363.188L268.17 363.352L268.498 362.04L267.514 361.22L266.202 361.548V362.86L265.054 364.008ZM275.55 363.024L275.058 361.712L274.238 362.04L274.73 363.352L275.55 363.024ZM326.39 362.04L327.702 363.024L327.866 362.204L326.39 362.04ZM309.662 362.86H308.514L309.662 364.828L310.318 363.844L309.662 362.86ZM296.542 364.336L298.018 362.86L294.738 363.844L296.542 364.336ZM285.226 363.188L283.914 364.828L287.03 363.516L285.226 363.188ZM300.806 364.664L301.79 364.336L301.954 365.484L300.806 364.664ZM277.518 365.976L279.65 364.5H277.846L277.19 365.976L275.878 367.616L276.862 368.436L278.174 367.944L278.338 366.632L277.518 365.976ZM288.834 364.992L287.686 368.272L289.162 366.96L288.834 364.992ZM270.794 367.616L269.646 365.156L268.498 366.96L269.318 368.764L271.286 368.6L270.794 367.616ZM298.51 366.468L300.314 366.632L299.494 365.976L298.51 366.468ZM279.978 370.076L281.618 368.764L281.29 366.96L282.93 367.944L284.734 366.96L281.29 366.796L279.978 370.076ZM316.222 376.472L318.354 377.128L319.502 373.356L319.666 371.388L318.026 370.24L316.55 370.896L318.026 369.256L316.222 367.616L315.238 368.108L315.402 367.124L314.09 368.436L313.598 370.732L315.402 372.208L316.386 371.06L317.206 373.028L315.894 374.176L316.222 376.472ZM300.642 369.42L303.43 367.944L301.626 367.78L300.642 369.42ZM292.278 372.044L292.442 369.748L290.638 368.272L289.49 369.748L288.342 368.436L287.03 368.272L284.242 369.748L286.866 369.092L287.522 371.716L288.342 371.552L290.146 372.864L292.278 372.044ZM321.47 371.06L322.126 369.912L321.634 368.764H320.322L320.158 370.896L321.47 371.06ZM302.282 372.372L303.102 373.028L301.298 369.748L301.79 372.208L302.282 372.372ZM274.402 371.88L274.894 370.732L272.926 369.912L272.27 371.06L273.09 372.044L274.402 371.88ZM329.834 369.912L327.702 372.536L329.178 373.848L330.982 373.028L331.31 371.224L329.834 369.912ZM325.898 374.012L326.882 371.88L325.406 370.076L323.11 370.24L325.898 374.012ZM300.642 376.636L302.282 375.324H301.134L300.97 374.34L300.314 375.488V373.848L298.346 372.7L299.986 375.652H298.674L300.642 376.636ZM307.038 373.684L305.726 372.864L305.562 375.816L306.874 375.16L307.038 373.684ZM319.666 373.192L321.962 374.176L321.142 373.028L319.666 373.192ZM328.85 375.16L331.802 374.012L329.998 373.684L328.85 375.16ZM278.01 375.324L278.83 375.652L278.01 374.504V375.324ZM323.93 377.292L324.586 375.488L322.29 377.62L323.93 377.292ZM284.242 378.604L285.39 377.948L285.226 376.636L284.242 378.604ZM308.186 379.916L309.498 378.44L305.562 377.784L306.382 379.588L308.186 379.916ZM320.158 381.72L321.142 380.9L318.682 379.916L318.846 381.228L320.158 381.72ZM307.858 385.164L309.334 383.852L309.17 382.048L305.89 383.196L306.054 384.508L307.858 385.164ZM461.209 344.656L460.389 350.888L459.733 357.94L460.225 361.22L461.209 364.664L460.389 368.108L460.061 374.176L461.209 377.62L459.077 384.344L455.305 385.492L448.745 384.508L446.121 383.852L443.169 384.672L440.545 384.508L434.313 385.328H430.705L427.097 386.148L419.881 383.688L417.749 380.408L418.569 377.292L420.045 371.06L420.701 367.944L419.881 364.664L419.389 358.268L418.569 352.2L419.553 345.148L419.389 338.588L419.881 336.456L417.913 330.224L407.089 328.092L404.957 330.552L402.825 337.276L402.661 342.688L401.841 345.476L402.989 347.772L402.333 354.332L402.661 358.432L402.825 368.436L403.317 370.568V380.408L401.513 383.852L394.461 385L391.017 385.328L389.049 385.656L385.605 385.164L379.865 385L373.797 384.672L369.697 385.164L365.761 384.344L363.301 383.688L361.989 381.064L361.825 378.112L361.989 370.404L361.497 367.452L361.825 364.5L361.989 358.104L362.645 351.216L361.661 344.656L362.153 334.98L361.497 331.7L361.989 324.32L361.661 321.204L362.973 315.956L361.989 308.904L361.169 305.624L362.153 302.344L362.481 298.9L362.973 296.112L360.677 290.044L361.825 279.384L363.629 269.872L369.533 268.068L372.813 268.888L379.537 268.56L381.833 269.052L392.001 268.068L401.185 269.544L402.989 276.268L402.661 279.384L403.153 282.828L402.825 289.06L402.497 292.176L403.973 298.408L402.825 304.148L402.333 307.428L404.629 305.788L407.089 304.148L418.077 298.9L421.193 298.736L427.589 298.9L431.525 299.228L435.461 299.064L443.989 302.672L447.433 304.312L452.845 309.396L454.157 312.02L457.601 317.924L460.061 324.976L459.405 328.748L460.553 332.52L460.389 338.588L461.701 341.704L461.209 344.656ZM381.505 270.692L380.029 269.708L381.177 272.496L381.505 270.692ZM371.337 272.332L371.665 273.152L372.649 272.824L373.633 272.988L374.617 271.84L372.485 270.2L371.337 272.332ZM378.225 270.528L377.897 272.168L379.537 271.676L379.209 270.692L378.225 270.528ZM396.593 271.184L394.625 273.152L396.265 272.66L396.593 271.184ZM365.925 271.512L365.597 272.66L366.417 273.48L367.565 273.152L367.893 272.004L365.925 271.512ZM375.273 273.808L375.765 272.004L374.289 273.316L374.617 274.3L374.781 275.284L373.961 276.924L375.273 277.744L375.765 276.76L376.585 278.564L378.553 278.728L378.881 276.104L379.701 275.448L379.373 274.464L378.881 272.824L376.585 275.12L374.945 275.284L375.109 274.3L377.405 274.136L375.273 273.808ZM398.397 273.316V274.464L399.381 275.12L400.365 274.464L399.381 272.824L398.397 273.316ZM369.041 272.824H367.893L367.237 273.644L368.221 273.316L369.041 272.824ZM379.701 273.48V274.956L381.177 274.792L380.357 274.628L379.701 273.48ZM388.885 273.808L387.901 275.776L389.049 277.416L388.885 273.808ZM391.837 274.628L390.197 274.136L392.165 276.104L391.837 274.628ZM366.909 276.76L365.925 275.612L366.089 276.432L366.909 276.76ZM383.473 277.744L380.521 276.268L380.029 276.432L379.209 278.4L380.685 280.04L382.817 279.712L384.129 278.236L383.473 277.744ZM370.517 276.596L369.369 278.236L370.353 280.04L372.485 276.76L370.517 276.596ZM389.705 277.744L385.769 277.252L387.737 278.564L389.705 277.744ZM397.413 279.384L397.085 278.564L396.265 280.04L397.413 279.384ZM364.777 278.564L363.793 279.22L364.285 280.204L365.925 280.04L368.221 279.712L364.777 278.564ZM391.837 280.86V279.384L390.525 278.728L389.213 279.548V281.024L391.837 280.86ZM375.601 280.86L377.569 281.352L375.109 283.484L376.421 282.992L375.601 284.14L377.241 284.304L378.225 282.828L377.897 281.516L376.913 280.532L375.601 280.86ZM373.961 284.632L374.617 282.5L373.305 281.024L371.173 281.352L373.961 284.632ZM393.969 281.516L393.313 281.68L392.657 282.828L393.313 283.976V282.828L394.953 284.14L395.281 284.96L396.921 283.648V282.008L395.445 281.188L393.969 281.516ZM400.693 283.156L400.365 281.844L399.217 281.516L399.381 282.992L397.905 282.172L397.085 282.5L398.561 284.468L400.037 284.14L400.693 283.156ZM366.909 284.14L368.221 286.272L369.697 287.748L371.829 287.256L370.189 285.78L370.681 284.304L371.009 282.664L369.697 281.68L369.533 282.5L368.385 282.336L366.909 284.14ZM382.489 285.78L384.457 285.452L382.817 284.796L383.965 282.172L381.669 282.5L380.685 284.632L382.489 285.78ZM363.465 286.6L363.793 282.992L362.645 284.632L363.465 286.6ZM389.541 283.32H388.557L388.229 284.304L390.197 284.14L389.541 283.32ZM379.045 286.108L378.061 285.616L378.881 287.092H379.701L380.521 288.404L381.177 287.092L380.357 286.108H379.045ZM387.081 286.108L384.785 285.616L387.737 288.24L387.081 286.108ZM390.689 291.848L391.345 289.552L392.821 290.536L394.461 289.716L391.345 287.748L391.017 288.732L389.377 289.388V291.848L388.557 292.832L392.329 294.308L394.625 297.096L395.117 295.784L395.281 296.768L396.429 297.096L395.117 295.784L395.445 294.964L394.789 293.98L396.101 292.668L398.397 292.504L397.085 290.536L395.445 290.7L393.805 290.208L392.821 292.176L391.509 292.012L390.689 291.848ZM382.981 290.208L384.293 289.224L381.505 289.552L382.981 290.208ZM375.601 291.192L376.093 292.34L378.061 292.176L378.717 290.7L377.733 291.192L377.241 290.372L375.601 291.192ZM385.933 293.652L384.949 292.832L383.801 291.52L381.997 291.848L383.309 292.34L384.129 293.652H385.933ZM398.725 293.16L397.905 294.636L398.561 295.62L398.233 296.44L400.365 295.948V295.128L398.725 293.16ZM376.749 293.816L375.765 295.62L377.241 296.44L378.881 295.62V293.816H376.749ZM387.081 301.032L387.409 302.016L387.737 303.328L388.885 302.344L389.049 301.196L391.017 300.868L390.853 298.9L391.673 298.408L391.509 299.884L392.329 300.54L390.853 301.36L390.689 303.164L392.165 304.148L393.805 303.328V302.672H393.641L393.805 302.508L393.641 300.212L392.001 299.392L393.805 299.064L393.641 297.916L392.165 297.588L392.329 296.44L391.837 296.276L391.017 294.8V296.44L390.197 295.292L387.901 295.456L387.081 297.588L390.033 297.26L388.229 297.752L387.081 301.032ZM367.401 299.392L365.925 295.948L365.761 298.08L367.401 299.392ZM379.701 296.44L380.193 298.244L381.013 297.588L380.685 296.604L379.701 296.44ZM399.709 298.572L400.365 299.392L399.709 297.424L399.053 297.096L398.725 297.424L397.905 299.72L397.085 300.704L398.233 300.048L399.217 300.704L399.709 298.572ZM390.689 297.096L390.853 298.9H390.689V297.096ZM396.101 300.212L397.249 299.884L397.413 298.736L395.281 299.228L394.789 300.048L396.101 300.212ZM384.785 299.72L386.425 298.9H383.473L381.669 300.048L382.325 301.36L383.801 301.196L384.785 299.72ZM381.669 300.868L380.685 300.704L380.193 302.344L381.833 301.852L381.669 300.868ZM425.621 300.868L425.949 302.508L426.933 302.344L427.261 301.524L425.621 300.868ZM395.609 302.18L394.461 301.852L393.805 302.508V302.672L395.937 303.328L395.609 302.18ZM376.257 303L374.453 302.18L372.649 303.492L376.421 303.984L376.257 303ZM432.673 304.804L434.805 303.164L433.493 302.672L432.509 303.492L432.673 304.804ZM394.953 304.312L394.297 305.296L395.609 305.46L396.593 305.624L395.937 303.984L394.953 304.312ZM373.797 306.444L373.305 304.64L371.665 304.148L370.353 305.296L372.157 305.952L371.009 305.624L372.157 306.608L373.797 306.444ZM401.349 304.476L398.725 304.64L397.577 306.116L396.101 307.92L398.233 308.248L398.889 307.428L401.021 306.608L401.349 304.476ZM387.245 304.804L386.261 306.444L389.213 308.248L390.197 305.46L389.213 304.804H387.245ZM410.697 306.772L409.713 307.92L411.353 308.576L412.009 309.396L413.321 309.232L414.797 307.756L414.141 305.624L412.173 305.132L410.697 306.772ZM393.641 308.248L391.345 306.116L391.837 307.92L393.641 308.248ZM375.601 306.936L375.765 310.052L374.289 310.216L373.633 311.692L376.093 312.676L376.257 310.872L377.569 310.052V307.92L375.601 306.936ZM378.553 309.56L380.357 308.904L380.849 307.1L378.553 309.56ZM398.725 308.412L400.365 308.084L400.037 307.1L398.725 308.412ZM372.977 307.264L371.009 309.56L372.485 309.724L373.469 308.74L372.977 307.264ZM432.181 311.2L434.313 311.856L433.165 307.756L431.689 309.232L432.181 311.2ZM379.373 314.808L381.341 312.02L382.981 313.66L383.309 312.184L384.293 310.872L385.933 312.184L387.901 311.364L386.589 307.92L384.621 308.74L384.293 310.708L384.129 309.56L382.489 308.74L381.833 310.052L380.029 310.544L381.013 311.856L379.701 312.512L379.373 314.808ZM415.781 310.708L417.093 309.724L416.765 308.084L415.781 310.708ZM364.941 309.232L368.057 310.052L367.729 308.576L366.089 308.084L364.941 309.232ZM396.757 313.66L395.117 310.544L397.085 312.676L397.577 311.036L396.429 309.888L395.117 310.216L393.313 308.412L392.001 311.2L392.985 312.512L391.837 312.676L393.149 313.824L394.789 314.48L395.281 315.464L396.757 313.66ZM409.057 311.692L409.549 308.904L407.909 308.576L406.925 309.724L407.581 311.364L406.269 311.856L406.105 313.332L408.729 313.66L408.893 312.184L407.745 311.364L409.057 311.692ZM399.053 309.724L397.905 311.364L398.725 312.02L399.873 311.528V310.38L399.053 309.724ZM369.369 309.724L367.401 310.872L366.745 311.856L367.565 312.676L368.877 313.66L370.845 310.872L369.369 309.724ZM426.605 312.512L427.425 311.528L427.097 310.38L425.785 310.052L424.965 311.036L426.605 312.512ZM414.141 314.316L414.961 313.66L414.633 311.528L412.173 311.856L411.025 310.052V312.184L411.189 313.496L411.517 314.316H414.141ZM388.229 312.84L389.705 312.512V311.364L389.541 310.052L388.229 312.84ZM414.797 310.38L413.649 311.2H414.469L414.797 310.38ZM379.045 312.348L379.537 311.2L378.717 311.856L377.733 311.036L375.437 313.66L377.077 314.972L378.881 314.316L379.045 312.348ZM370.845 315.792L373.633 314.808L372.813 313.332L373.797 312.676L373.141 311.364H371.665L371.009 313.496L370.517 312.02L370.025 315.3L370.845 315.792ZM384.785 313.168L385.113 312.348L383.473 312.676L384.785 313.168ZM396.593 312.676L397.085 314.808L399.217 315.628L401.021 313.988L396.593 312.676ZM390.689 318.58L390.033 317.268H391.181L392.001 315.956L389.213 316.448L388.393 316.284L387.737 315.136L386.589 315.628L384.949 314.48L383.637 315.628L382.817 318.58L384.293 319.4L385.277 320.056L384.949 318.58H385.769L387.081 318.908L388.065 317.76L387.245 318.744L389.705 317.924L390.689 318.58ZM446.285 315.956L445.137 314.644L443.333 314.808L442.677 316.612L445.137 316.12L445.301 317.596L446.285 315.956ZM392.821 315.792L394.133 314.972H393.313L392.821 315.792ZM402.005 315.136L400.037 317.268L401.677 316.776L402.005 315.136ZM373.633 318.088L374.289 319.564L375.929 319.728L376.093 316.94L375.601 315.464L373.469 316.284L373.633 318.088ZM407.253 318.908L409.221 316.94L407.909 315.792L406.433 316.284L405.941 317.76L407.253 318.908ZM380.685 317.268L380.029 319.072L382.489 316.94L380.685 317.268ZM378.553 319.892L379.537 317.596L378.389 318.416L378.553 319.892ZM404.301 321.696L404.957 319.564L403.481 318.088L401.349 318.58L402.333 322.188L404.301 321.696ZM406.925 320.548L407.417 319.728L406.925 318.908H405.941L406.925 320.548ZM388.885 320.712L390.853 320.876L392.985 322.352L392.329 320.876H391.181L392.493 319.072L388.885 320.712ZM369.041 320.548L368.385 319.728H367.401L369.041 320.548ZM378.389 324.32L378.881 322.188L377.241 320.712L375.273 321.368L378.389 324.32ZM385.769 323.664L387.081 322.844V321.368L384.457 321.532L384.621 323.008L385.769 323.664ZM375.601 321.86L374.289 322.024L373.797 323.336L374.453 324.32L375.765 324.156L375.601 321.86ZM382.161 322.352L381.997 323.336L382.817 323.828L382.981 321.86L382.161 322.352ZM386.589 327.108L388.065 327.272L389.869 326.78L390.525 324.484L388.885 322.844L386.589 323.5L386.917 324.812L386.097 325.796L386.589 327.108ZM413.321 324.156L414.961 323.5L412.173 323.008L413.321 324.156ZM393.313 323.5L392.001 323.172L393.641 324.812L393.313 323.5ZM373.469 324.976L372.321 326.944L373.469 329.076L376.913 327.108L376.585 326.288L377.405 325.96L375.765 325.14L373.469 324.976ZM384.293 326.944H386.097L385.933 325.96L385.113 325.468L384.293 325.96V326.944ZM396.265 333.176L398.069 331.864L397.577 330.388L397.249 328.748L396.921 330.06L395.937 328.584L393.313 329.404V328.584H391.509L390.689 329.896L389.377 330.388V328.584L390.525 328.092V326.452L389.541 327.6L387.409 328.584V330.88L389.213 332.028L388.885 332.848L389.705 332.192L390.197 334.324V334.652L391.673 336.128L394.297 333.832L396.265 333.176ZM385.277 332.684L386.261 331.044L383.801 329.568L384.621 329.404L383.145 327.928L381.341 328.42L380.849 330.224L383.145 329.732L381.997 330.388L380.521 331.372L380.685 333.012L382.489 331.864L381.997 333.504L382.817 332.684V331.7L383.309 332.684H385.277ZM400.693 330.88V328.584L399.381 328.42L398.725 329.568L399.381 330.716L400.693 330.88ZM375.765 330.716L376.913 332.192L378.717 332.028L376.585 329.076L375.765 330.716ZM375.601 332.848L376.585 332.356L375.273 331.372L375.437 330.552L374.125 330.06L371.009 333.176L374.945 334.16L374.781 333.012L375.601 332.848ZM368.221 335.308L367.401 335.472L369.205 335.8L371.009 336.292L369.697 335.144L371.009 332.848L368.877 332.684L367.893 334.488L368.221 335.308ZM386.261 337.276L386.097 333.668L384.621 334.652V336.456L386.261 337.276ZM365.269 336.456L365.597 335.636L365.105 334.816H364.121L365.269 336.456ZM374.617 336.948L375.765 336.456V335.144L373.469 336.292L374.617 336.948ZM371.009 337.44L373.633 336.948L372.813 335.964L371.501 336.128L371.009 337.44ZM390.197 337.276L389.869 339.08L391.345 340.228L392.985 339.572L391.837 336.62L390.197 337.276ZM386.097 339.408L387.081 338.752L386.917 337.44L385.605 337.768L385.113 339.736L386.097 339.408ZM376.421 338.916L378.389 342.196L379.209 343.016L380.357 340.392L380.029 338.26L378.061 337.604L376.421 338.916ZM369.697 337.768L368.385 340.884L370.189 341.54L371.829 340.392L371.501 338.424L369.697 337.768ZM373.633 339.736L372.321 341.212L375.273 340.064L373.633 339.736ZM384.293 340.556L382.653 341.376V343.18L384.129 344.164L384.293 340.556ZM400.365 341.868L400.037 340.884L399.217 340.72L398.889 342.36L400.365 341.868ZM388.885 342.032L387.901 341.704L388.885 344.82L390.033 343.672L389.705 342.196L389.049 341.048L388.885 342.032ZM390.197 348.92L391.509 349.74L392.821 348.92L392.165 347.772L392.821 346.624L391.837 344.656L392.985 343.016L392.821 341.704L391.509 341.212L390.525 341.868L392.165 342.688L391.181 343.672V344.492L391.017 342.196L390.525 343.344L391.181 344.492L389.541 344.328V345.476L388.721 345.804L388.393 348.1L389.213 348.264L390.197 348.92ZM370.353 342.36L370.025 344.492L371.665 346.132L373.961 345.312L374.125 344L375.437 344.164L376.585 342.688L375.437 343.016L375.273 343.18H374.289L375.437 343.016L375.765 342.36L375.109 341.54L374.289 342.524L372.977 341.54L371.501 342.524L370.353 342.36ZM376.913 342.524L376.421 344L377.241 343.836L376.913 342.524ZM381.997 342.852L379.865 344.656L381.505 344.328L381.997 342.852ZM395.281 348.92L396.265 347.772L395.609 346.132L393.641 348.756L395.281 348.92ZM385.769 350.888L387.901 348.428L386.425 347.116L384.621 347.608L384.293 349.576L385.277 350.888L384.621 352.364L384.457 351.052L384.293 350.232L382.161 349.248L380.357 350.724L381.013 352.2L381.505 353.184L382.817 353.84L384.457 352.528L383.965 353.512L384.129 354.824L386.261 354.496L386.097 353.184L386.917 350.56L385.769 350.888ZM368.221 353.512L371.009 350.232L368.221 349.74L366.417 351.052L366.745 353.348L367.893 352.528L368.221 353.512ZM391.509 351.544L390.525 350.232L388.885 350.56L391.017 353.02L391.509 351.544ZM393.805 353.84L394.297 355.152L395.609 355.316L395.937 353.02L394.625 352.856L393.805 353.84ZM383.801 358.268L385.769 358.924L385.277 355.972L384.949 354.824L383.473 356.136L383.801 358.268L382.981 357.776L381.341 360.4L382.817 361.384L384.785 360.892L384.457 360.564L383.801 358.268ZM394.297 358.924L395.445 361.548L396.757 362.204L394.297 358.924ZM386.425 359.908V360.728L387.901 360.564L386.425 359.908ZM388.721 360.564L388.229 360.892L386.917 364.008L388.557 362.696L388.229 360.892L389.869 361.712L390.853 361.056L389.705 360.4L388.721 360.564ZM395.773 364.172L393.477 363.844L393.969 364.992H395.117L395.773 364.172ZM378.881 368.436L382.489 366.96L381.013 365.812L379.209 366.468L378.881 368.436ZM385.933 369.092L389.869 369.42L390.033 367.124L387.737 365.976L387.409 366.14L385.933 366.796V369.092ZM380.357 371.224L381.833 369.912L378.225 368.6L377.897 366.14L375.601 366.304L375.109 368.928L373.797 369.256L372.649 372.864L373.469 373.028L371.501 374.832L373.141 374.504L373.633 373.192L374.781 373.52L376.257 372.044L375.765 369.912L375.109 368.928L376.093 370.24L378.389 370.568L380.357 371.224ZM395.445 367.452L393.313 368.272L397.085 368.764L395.445 367.452ZM390.033 371.388L390.525 372.536L392.001 370.568H390.853L390.033 371.388ZM381.505 373.684L380.849 372.372L380.685 374.012L381.505 373.684ZM394.625 376.964L397.741 374.504L396.429 372.7L394.133 372.864L393.149 374.996L394.625 376.964ZM392.821 377.784L394.133 376.472L390.853 375.324L391.017 377.128L392.821 377.784ZM387.737 383.524L389.049 382.212L388.557 380.572L385.605 381.392L386.097 383.032L387.737 383.524Z" fill="#A3A3A3"/>
<path d="M139.696 120.8H170.664C172.101 120.8 173.343 121.323 174.388 122.368C175.433 123.413 175.956 124.655 175.956 126.092V252.708C175.956 254.145 175.433 255.387 174.388 256.432C173.343 257.477 172.101 258 170.664 258H135.188C133.751 258 132.509 257.477 131.464 256.432C130.419 255.387 129.896 254.145 129.896 252.708V199.004L116.96 220.172C114.869 223.439 112.452 225.072 109.708 225.072H95.988C93.244 225.072 90.8267 223.439 88.736 220.172L75.8 199.004V252.708C75.8 254.145 75.2773 255.387 74.232 256.432C73.1867 257.477 71.9453 258 70.508 258H35.032C33.5947 258 32.3533 257.477 31.308 256.432C30.2627 255.387 29.74 254.145 29.74 252.708V126.092C29.74 124.655 30.2627 123.413 31.308 122.368C32.3533 121.323 33.5947 120.8 35.032 120.8H66C69.6587 120.8 72.468 122.564 74.428 126.092L102.848 173.132L131.268 126.092C133.228 122.564 136.037 120.8 139.696 120.8ZM309.427 196.26H326.479C328.047 196.26 329.354 196.783 330.399 197.828C331.445 198.873 331.967 200.115 331.967 201.552V230.756C331.967 232.193 331.445 233.435 330.399 234.48C329.354 235.525 328.113 236.048 326.675 236.048H309.427V252.708C309.427 254.145 308.905 255.387 307.859 256.432C306.814 257.477 305.573 258 304.135 258H267.679C266.242 258 265.001 257.477 263.955 256.432C262.91 255.387 262.387 254.145 262.387 252.708V236.048H203.783C202.346 236.048 201.105 235.525 200.059 234.48C199.014 233.435 198.491 232.193 198.491 230.756V202.728C198.491 200.507 199.21 198.481 200.647 196.652L256.115 124.132C257.945 121.911 260.362 120.8 263.367 120.8H304.135C305.573 120.8 306.814 121.323 307.859 122.368C308.905 123.413 309.427 124.655 309.427 126.092V196.26ZM263.759 198.416V170.192L243.179 198.416H263.759ZM473.113 217.624C474.551 217.624 475.792 218.147 476.837 219.192C477.883 220.237 478.405 221.479 478.405 222.916V252.708C478.405 254.145 477.883 255.387 476.837 256.432C475.792 257.477 474.551 258 473.113 258H357.865C356.428 258 355.187 257.477 354.141 256.432C353.096 255.387 352.573 254.145 352.573 252.708V232.324C352.573 227.62 354.207 224.092 357.473 221.74C385.175 201.748 401.965 189.204 407.845 184.108C417.123 176.007 421.761 169.473 421.761 164.508C421.761 160.457 420.716 158.04 418.625 157.256C417.58 156.864 416.404 156.668 415.097 156.668C413.921 156.668 412.876 156.799 411.961 157.06C411.177 157.191 410.459 157.452 409.805 157.844C409.152 158.105 408.564 158.497 408.041 159.02C407.519 159.543 407.061 160 406.669 160.392C406.408 160.784 406.081 161.372 405.689 162.156C405.297 162.94 405.036 163.528 404.905 163.92C404.252 165.488 403.925 166.403 403.925 166.664C402.88 169.669 400.267 171.172 396.085 171.172H359.237C358.061 171.172 357.016 170.78 356.101 169.996C355.317 169.081 354.925 168.036 354.925 166.86C354.925 152.356 360.544 140.596 371.781 131.58C383.149 122.564 397.588 118.056 415.097 118.056C432.737 118.056 446.784 121.976 457.237 129.816C467.821 137.525 473.113 148.24 473.113 161.96C473.113 172.283 469.52 181.625 462.333 189.988C455.147 198.351 444.171 207.563 429.405 217.624H473.113Z" fill="white"/>
</g>
<defs>
<clipPath id="clip0_580_2">
<rect width="500" height="500" fill="white"/>
</clipPath>
</defs>
</svg>
